<svg xmlns="http://www.w3.org/2000/svg" viewBox="0 0 106 106">
  <style>
  .st0{fill:#fff}
  
  svg:hover .openedeye  {   
   -webkit-animation:blink 1s infinite;
  }
  
  @-webkit-keyframes blink {
    0%, 50% {
      -webkit-transform:scale(1,1);
    transform-origin: 50% 50%;
   transform-box: fill-box;
    }
    100% {
      -webkit-transform:scale(1,0);
    transform-origin: 50% 50%;
   transform-box: fill-box;
    }
  }
  
  </style>
  <g id="icon">
    <path d="M3 3h100v100H3z" class="st0"/>
    <path d="M106 106H0V0h106v106zM6 100h94V6H6v94z"/>
    <path d="M53 3c.5 17.1-2.2 34.3 7 47 10.4 14.4 26.5 13 43 13V3H53zM44 68.3h17.9c.5 5.7-3.6 10.4-8.1 10.7-5 .4-10.3-4.4-9.8-10.7z"/>
    <path d="M68 89.5a21.4 21.4 0 0 1-17.1-9.1l4.2-2.8c.2.3 4.7 6.9 12.9 6.9.3 0 8.4-.1 12.9-6.9l4.2 2.8c-6 8.8-16 9.1-17.1 9.1z"/>
    <path d="M38 89.5a21.4 21.4 0 0 1-17.1-9.1l4.2-2.8c.2.3 4.7 6.9 12.9 6.9.3 0 8.4-.1 12.9-6.9l4.2 2.8c-6 8.8-16 9.1-17.1 9.1z"/>
    <g>
      <circle cx="78" cy="40" r="8.5" class="st0"/>
      <path d="M78 49c-5 0-9-4-9-9s4-9 9-9 9 4 9 9-4 9-9 9zm0-17c-4.4 0-8 3.6-8 8s3.6 8 8 8 8-3.6 8-8-3.6-8-8-8z" class="st0"/>
    </g>
  </g>
  <g id="_x24__x7B_css_x7C_styles_x7D_">
    <g id="openedeye" class="openedeye">
		<circle id="eye_1_" cx="28" cy="40" r="8.5"/>
		<path  d="M28 49c-5 0-9-4-9-9s4-9 9-9 9 4 9 9-4 9-9 9zm0-17c-4.4 0-8 3.6-8 8s3.6 8 8 8 8-3.6 8-8-3.6-8-8-8z"/>
    </g>
	<g>
      <ellipse class="closedeye" id="eye:hover_1_" cx="28" cy="40" rx="8.5" ry="1"/>
      <path d="M28 41.5c-4.1 0-9-.3-9-1.5s4.9-1.5 9-1.5 9 .3 9 1.5-4.9 1.5-9 1.5zM20.7 40c1.2.3 3.8.5 7.3.5s6.1-.2 7.3-.5c-1.2-.3-3.8-.5-7.3-.5s-6.1.2-7.3.5z"/>
    </g>
  </g>
</svg>